<?xml version="1.0" encoding="utf-8"?>
<!-- Generator: Adobe Illustrator 18.0.0, SVG Export Plug-In . SVG Version: 6.00 Build 0)  -->
<!DOCTYPE svg PUBLIC "-//W3C//DTD SVG 1.1//EN" "http://www.w3.org/Graphics/SVG/1.1/DTD/svg11.dtd">
<svg version="1.1" id="Layer_1" xmlns="http://www.w3.org/2000/svg" xmlns:xlink="http://www.w3.org/1999/xlink" x="0px" y="0px"
	 width="528.202px" height="28px" viewBox="0 0 528.202 28" enable-background="new 0 0 528.202 28" xml:space="preserve">
<g>
	<g>
		<path fill="#FFFFFF" d="M11.74,21.373c-0.132-0.33-1.171-2.719-1.349-3.117H4.245c-0.132,0.265-1.217,2.787-1.348,3.117H0
			C0.177,20.977,6.212,6.781,6.323,6.538h1.968c0.088,0.221,6.146,14.282,6.391,14.835H11.74z M7.297,10.938
			C7.053,11.49,5.394,15.27,5.24,15.669h4.113C9.22,15.381,7.495,11.447,7.297,10.938"/>
	</g>
	<g>
		<path fill="#FFFFFF" d="M25.784,6.272c2.476,0,4.4,1.15,5.617,2.454c-0.2,0.2-1.616,1.659-1.901,1.925
			c-0.796-0.863-1.991-1.725-3.716-1.725c-2.72,0-4.975,2.255-4.975,5.085c0,2.763,2.233,5.063,4.975,5.063
			c1.504,0,2.83-0.73,3.737-1.768c0.243,0.242,1.659,1.658,1.88,1.879c-1.195,1.283-3.163,2.543-5.617,2.543
			c-4.201,0-7.76-3.339-7.76-7.717C18.024,9.655,21.538,6.272,25.784,6.272"/>
	</g>
	<g>
		<polygon fill="#FFFFFF" points="45.774,6.626 45.774,12.706 39.074,12.706 39.074,6.626 36.399,6.626 36.399,21.375 
			39.074,21.375 39.074,15.338 45.774,15.338 45.774,21.375 48.469,21.375 48.469,6.626 		"/>
	</g>
	<g>
		<rect x="54.928" y="6.625" fill="#FFFFFF" width="2.697" height="14.749"/>
	</g>
	<g>
		<polygon fill="#FFFFFF" points="64.016,6.626 64.016,21.375 75.316,21.375 75.316,18.788 66.67,18.788 66.67,15.228 
			73.634,15.228 73.634,12.641 66.67,12.641 66.67,9.213 75.38,9.213 75.38,6.626 		"/>
	</g>
	<g>
		<g>
			<path fill="#FFFFFF" d="M87.696,21.551h-1.924c-0.243-0.708-5.594-14.085-5.926-14.925h2.898
				c0.264,0.708,3.759,9.772,4.046,10.525c0.288-0.775,3.781-9.839,4.002-10.525h2.851C93.379,7.312,87.94,20.954,87.696,21.551"/>
		</g>
	</g>
	<g>
		<polygon fill="#FFFFFF" points="98.422,6.626 98.422,21.375 109.72,21.375 109.72,18.788 101.074,18.788 101.074,15.228 
			108.04,15.228 108.04,12.641 101.074,12.641 101.074,9.213 109.786,9.213 109.786,6.626 		"/>
	</g>
	<g>
		<polygon fill="#FFFFFF" points="123.21,6.626 123.21,9.213 127.499,9.213 127.499,21.375 130.218,21.375 130.218,9.213 
			134.374,9.213 134.374,6.626 		"/>
	</g>
	<g>
		<polygon fill="#FFFFFF" points="148.637,6.626 148.637,12.706 141.939,12.706 141.939,6.626 139.262,6.626 139.262,21.375 
			141.939,21.375 141.939,15.338 148.637,15.338 148.637,21.375 151.334,21.375 151.334,6.626 		"/>
	</g>
	<g>
		<polygon fill="#FFFFFF" points="157.616,6.626 157.616,21.375 168.914,21.375 168.914,18.788 160.268,18.788 160.268,15.228 
			167.234,15.228 167.234,12.641 160.268,12.641 160.268,9.213 168.98,9.213 168.98,6.626 		"/>
	</g>
	<g>
		<g>
			<path fill="#FFFFFF" d="M190.805,6.272c2.476,0,4.4,1.15,5.617,2.454c-0.2,0.2-1.616,1.659-1.903,1.925
				c-0.796-0.863-1.989-1.725-3.714-1.725c-2.72,0-4.975,2.255-4.975,5.085c0,2.763,2.233,5.063,4.975,5.063
				c1.504,0,2.83-0.73,3.737-1.768c0.243,0.242,1.659,1.658,1.88,1.879c-1.195,1.283-3.163,2.543-5.617,2.543
				c-4.201,0-7.76-3.339-7.76-7.717C183.045,9.655,186.559,6.272,190.805,6.272"/>
		</g>
		<g>
			<path fill="#FFFFFF" d="M207.899,21.728c-4.289,0-7.739-3.45-7.739-7.717c0-4.289,3.45-7.739,7.717-7.739
				c4.289,0,7.739,3.45,7.739,7.739C215.616,18.278,212.166,21.728,207.899,21.728 M207.877,8.881c-2.763,0-4.953,2.278-4.953,5.13
				c0,2.853,2.19,5.108,4.975,5.108c2.786,0,4.975-2.255,4.975-5.108C212.874,11.159,210.662,8.881,207.877,8.881"/>
		</g>
		<g>
			<path fill="#FFFFFF" d="M230.077,21.373c-0.287-0.463-2.896-4.797-3.228-5.35h-3.581v5.35h-2.654V6.626h7.783
				c2.697,0,4.688,2.079,4.688,4.732c0,2.189-1.548,3.912-3.207,4.332c0.311,0.487,3.184,5.196,3.516,5.683H230.077z M228.11,9.213
				h-4.842v4.246h4.864c1.304,0,2.19-0.929,2.19-2.101C230.322,10.185,229.436,9.213,228.11,9.213"/>
		</g>
	</g>
	<g>
		<polygon fill="#FFFFFF" points="238.636,6.626 238.636,21.375 249.935,21.375 249.935,18.788 241.29,18.788 241.29,15.228 
			248.255,15.228 248.255,12.641 241.29,12.641 241.29,9.213 250,9.213 250,6.626 		"/>
	</g>
</g>
<g>
	<g>
		<path fill="#FFFFFF" d="M302.796,19.602h-1.36l-1.312-2.961h-6.099l-1.328,2.961h-1.297l5.106-11.284h1.185L302.796,19.602z
			 M297.082,9.791l-2.562,5.714h5.106L297.082,9.791z"/>
	</g>
	<g>
		<path fill="#FFFFFF" d="M310.57,19.794c-3.233,0-5.618-2.545-5.618-5.778c0-3.201,2.368-5.811,5.666-5.811
			c2.032,0,3.249,0.72,4.369,1.776l-0.864,0.929c-0.944-0.896-2-1.537-3.521-1.537c-2.48,0-4.337,2.001-4.337,4.61
			s1.872,4.642,4.337,4.642c1.537,0,2.546-0.592,3.618-1.616l0.832,0.816C313.884,19.01,312.603,19.794,310.57,19.794z"/>
	</g>
	<g>
		<path fill="#FFFFFF" d="M328.812,19.602h-1.36l-1.312-2.961h-6.099l-1.328,2.961h-1.297l5.106-11.284h1.185L328.812,19.602z
			 M323.098,9.791l-2.562,5.714h5.106L323.098,9.791z"/>
	</g>
	<g>
		<path fill="#FFFFFF" d="M336.01,19.602h-3.89V8.398h3.89c3.521,0,5.954,2.417,5.954,5.586S339.531,19.602,336.01,19.602z
			 M336.01,9.566h-2.625v8.867h2.625c2.833,0,4.642-1.92,4.642-4.417S338.843,9.566,336.01,9.566z"/>
	</g>
	<g>
		<path fill="#FFFFFF" d="M353.835,9.55h-6.834v3.825h6.114v1.152h-6.114v3.922h6.914v1.152h-8.179V8.398h8.099V9.55z"/>
	</g>
	<g>
		<path fill="#FFFFFF" d="M362.938,16.529h-0.064l-4.081-5.986v9.06h-1.232V8.398h1.28l4.082,6.114l4.081-6.114h1.28v11.204h-1.264
			v-9.075L362.938,16.529z"/>
	</g>
	<g>
		<path fill="#FFFFFF" d="M373.928,8.398v11.204h-1.265V8.398H373.928z"/>
	</g>
	<g>
		<path fill="#FFFFFF" d="M383.449,19.794c-3.233,0-5.618-2.545-5.618-5.778c0-3.201,2.368-5.811,5.666-5.811
			c2.032,0,3.249,0.72,4.369,1.776l-0.864,0.929c-0.944-0.896-2-1.537-3.521-1.537c-2.48,0-4.337,2.001-4.337,4.61
			s1.872,4.642,4.337,4.642c1.537,0,2.546-0.592,3.618-1.616l0.832,0.816C386.763,19.01,385.481,19.794,383.449,19.794z"/>
	</g>
	<g>
		<path fill="#FFFFFF" d="M403.962,8.366h1.041l3.073,9.363l3.201-9.331h1.328l-4.001,11.284h-1.073l-3.073-9.092l-3.089,9.092
			h-1.057l-4.001-11.284h1.376l3.201,9.331L403.962,8.366z"/>
	</g>
	<g>
		<path fill="#FFFFFF" d="M420.617,19.794c-3.41,0-5.698-2.674-5.698-5.778c0-3.105,2.32-5.811,5.729-5.811
			c3.41,0,5.698,2.673,5.698,5.778S424.026,19.794,420.617,19.794z M420.617,9.374c-2.562,0-4.386,2.049-4.386,4.61
			c0,2.561,1.856,4.642,4.417,4.642c2.562,0,4.386-2.049,4.386-4.609C425.034,11.455,423.178,9.374,420.617,9.374z"/>
	</g>
	<g>
		<path fill="#FFFFFF" d="M437.85,19.602l-3.249-4.354h-3.201v4.354h-1.265V8.398h4.817c2.465,0,4.05,1.328,4.05,3.345
			c0,1.873-1.28,2.961-3.041,3.281l3.441,4.578H437.85z M434.856,9.566h-3.457v4.546h3.441c1.681,0,2.881-0.864,2.881-2.321
			C437.722,10.398,436.665,9.566,434.856,9.566z"/>
	</g>
	<g>
		<path fill="#FFFFFF" d="M446.713,19.602h-3.89V8.398h3.89c3.521,0,5.954,2.417,5.954,5.586S450.234,19.602,446.713,19.602z
			 M446.713,9.566h-2.625v8.867h2.625c2.833,0,4.642-1.92,4.642-4.417S449.546,9.566,446.713,9.566z"/>
	</g>
	<g>
		<path fill="#FFFFFF" d="M470.409,9.566h-6.786v4.002h6.066v1.152h-6.066v4.882h-1.265V8.398h8.051V9.566z"/>
	</g>
	<g>
		<path fill="#FFFFFF" d="M475.351,8.398v11.204h-1.265V8.398H475.351z"/>
	</g>
	<g>
		<path fill="#FFFFFF" d="M487.993,8.398h1.232v11.204h-1.009l-7.234-9.188v9.188h-1.232V8.398h1.185l7.059,8.979V8.398z"/>
	</g>
	<g>
		<path fill="#FFFFFF" d="M497.384,19.602h-3.89V8.398h3.89c3.521,0,5.954,2.417,5.954,5.586S500.905,19.602,497.384,19.602z
			 M497.384,9.566h-2.625v8.867h2.625c2.833,0,4.642-1.92,4.642-4.417S500.217,9.566,497.384,9.566z"/>
	</g>
	<g>
		<path fill="#FFFFFF" d="M515.209,9.55h-6.834v3.825h6.114v1.152h-6.114v3.922h6.914v1.152h-8.179V8.398h8.099V9.55z"/>
	</g>
	<g>
		<path fill="#FFFFFF" d="M526.649,19.602l-3.249-4.354h-3.201v4.354h-1.265V8.398h4.817c2.465,0,4.05,1.328,4.05,3.345
			c0,1.873-1.28,2.961-3.041,3.281l3.441,4.578H526.649z M523.656,9.566h-3.457v4.546h3.441c1.681,0,2.881-0.864,2.881-2.321
			C526.521,10.398,525.465,9.566,523.656,9.566z"/>
	</g>
</g>
<g>
	<g>
		<rect x="272.453" fill="#FFFFFF" width="1" height="28"/>
	</g>
</g>
</svg>
